<?xml version="1.0" encoding="UTF-8" standalone="no"?>
<!DOCTYPE svg PUBLIC "-//W3C//DTD SVG 1.1//EN" "http://www.w3.org/Graphics/SVG/1.1/DTD/svg11.dtd">
<svg width="100%" height="100%" viewBox="0 0 42 42" version="1.1" xmlns="http://www.w3.org/2000/svg" xmlns:xlink="http://www.w3.org/1999/xlink" xml:space="preserve" xmlns:serif="http://www.serif.com/" style="fill-rule:evenodd;clip-rule:evenodd;stroke-linecap:round;stroke-linejoin:round;stroke-miterlimit:1.5;">
    <g transform="matrix(1.7495e-16,2.85714,-2.85714,1.7495e-16,49.5714,-50.4286)">
        <path d="M25,3L31.062,6.5L31.062,13.5L25,17L18.938,13.5L18.938,6.5L25,3Z" style="fill:none;stroke:rgb(247,252,255);stroke-width:0.35px;"/>
    </g>
    <g id="iconmonstr" transform="matrix(1,1.2326e-32,-1.2326e-32,1,9,9)">
        <path id="database-2" d="M12.008,11.928C8.582,11.928 4,10.922 4,9.314L4,6.943C6.117,8.285 9.17,8.723 12.008,8.723C14.837,8.723 17.884,8.284 20,6.943L20,9.314C20,11.068 14.869,11.928 12.008,11.928ZM20,14.513C20,16.263 14.896,17.126 12.008,17.126C8.596,17.126 4,16.125 4,14.513L4,12.148C6.116,13.49 9.17,13.928 12.008,13.928C14.847,13.928 17.889,13.486 20,12.148L20,14.513ZM20,19.386C20,21.137 14.896,22 12.008,22C8.596,22 4,20.998 4,19.386L4,17.347C6.117,18.688 9.17,19.126 12.008,19.126C14.837,19.126 17.884,18.688 20,17.347L20,19.386ZM12.008,2C15.646,2 20,2.909 20,4.361C20,5.942 14.896,6.723 12.008,6.723C8.596,6.723 4,5.817 4,4.361C4,2.777 8.813,2 12.008,2ZM12.008,0C7.783,0 2,1.001 2,4.361L2,19.639C2,23 8.209,24 12.008,24C15.791,24 22,22.999 22,19.639L22,4.361C22,1 16.035,0 12.008,0Z" style="fill:rgb(247,252,255);fill-rule:nonzero;"/>
    </g>
</svg>
