<?xml version="1.0" encoding="UTF-8" standalone="no"?>
<!DOCTYPE svg PUBLIC "-//W3C//DTD SVG 1.1//EN" "http://www.w3.org/Graphics/SVG/1.1/DTD/svg11.dtd">
<svg width="100%" height="100%" viewBox="0 0 42 42" version="1.1" xmlns="http://www.w3.org/2000/svg" xmlns:xlink="http://www.w3.org/1999/xlink" xml:space="preserve" xmlns:serif="http://www.serif.com/" style="fill-rule:evenodd;clip-rule:evenodd;stroke-linecap:round;stroke-linejoin:round;stroke-miterlimit:1.5;">
    <g id="Design" transform="matrix(1,2.46519e-32,-2.46519e-32,1,8.99985,8.99998)">
        <g>
            <path id="paintbrush-8" d="M9.387,16.76L5.787,20.368L2.809,21.192L3.633,18.213L7.31,14.528C6.953,13.944 6.692,13.325 6.45,12.624L1.824,17.259L0,24L6.773,22.209L11,17.975C10,17.247 9.97,17.226 9.387,16.76ZM19.088,4.206L15.116,8.187C15.356,8.386 15.601,8.61 15.849,8.868L19.795,4.913L19.088,4.206ZM14.251,7.572L19.055,2.757L21.209,4.913L16.513,9.619C16.95,10.144 17.326,10.639 17.759,11.203L24,4.95L19.051,0L12.33,6.733C13.035,6.962 13.658,7.216 14.251,7.572ZM6.007,18.734L8.627,16.107C8.367,15.864 8.138,15.623 7.937,15.384L5.3,18.027L6.007,18.734ZM10.884,15.402C13.592,17.45 22.708,23.853 22.708,23.853C23.462,24.365 24.37,23.435 23.844,22.69C23.844,22.69 17.236,13.726 15.125,11.072C13.457,8.971 12.623,8.897 9.665,8.025L7.712,10.022C8.648,12.954 8.745,13.783 10.884,15.402ZM0,0C2.799,1.2 8.683,0.955 8.307,6.371L6.164,8.557C0.826,8.65 0.925,2.952 0,0Z" style="fill:rgb(247,252,255);fill-rule:nonzero;"/>
        </g>
    </g>
    <g transform="matrix(1.7495e-16,2.85714,-2.85714,1.7495e-16,49.5714,-50.4286)">
        <path d="M25,3L31.062,6.5L31.062,13.5L25,17L18.938,13.5L18.938,6.5L25,3Z" style="fill:none;stroke:rgb(247,252,255);stroke-width:0.35px;"/>
    </g>
</svg>
