<?xml version="1.0" encoding="UTF-8" standalone="no"?>
<!DOCTYPE svg PUBLIC "-//W3C//DTD SVG 1.1//EN" "http://www.w3.org/Graphics/SVG/1.1/DTD/svg11.dtd">
<svg width="100%" height="100%" viewBox="0 0 42 42" version="1.1" xmlns="http://www.w3.org/2000/svg" xmlns:xlink="http://www.w3.org/1999/xlink" xml:space="preserve" xmlns:serif="http://www.serif.com/" style="fill-rule:evenodd;clip-rule:evenodd;stroke-linecap:round;stroke-linejoin:round;stroke-miterlimit:1.5;">
    <g id="FrontEnd" transform="matrix(1,0,0,1,9,9)">
        <path id="laptop-6" d="M24,18L24,18.8C24,19.463 23.463,20 22.8,20L1.2,20C0.537,20 0,19.463 0,18.8L0,18L10,18C10,18.276 10.224,18.5 10.5,18.5L13.5,18.5C13.776,18.5 14,18.276 14,18L24,18ZM4,6L20,6L20,15L4,15L4,6ZM22,17L22,5.2C22,4.537 21.463,4 20.8,4L3.2,4C2.537,4 2,4.537 2,5.2L2,17L22,17Z" style="fill:rgb(247,252,255);fill-rule:nonzero;"/>
    </g>
    <g transform="matrix(1.7495e-16,2.85714,-2.85714,1.7495e-16,49.5714,-50.4286)">
        <path d="M25,3L31.062,6.5L31.062,13.5L25,17L18.938,13.5L18.938,6.5L25,3Z" style="fill:none;stroke:rgb(247,252,255);stroke-width:0.35px;"/>
    </g>
</svg>
